<svg xmlns="http://www.w3.org/2000/svg" width="45" height="44.381" viewBox="0 0 45 44.381"><g transform="translate(-3470.229 -1851.687)"><g transform="translate(3470.229 1851.687)"><path d="M206.274,107.053h4.738l5.561-8.614-2.366-3.668Zm25.1-13.379h0l.144.224,8.489,13.154H222.129l-2.574-3.99h13.138L217.842,80.042l-17.428,27.01h-5.407V62.672h27.677c.561,0,1.11.026,1.645.078s1.083.134,1.62.24,1.067.239,1.587.4,1.044.344,1.539.549,1,.444,1.48.7.952.541,1.407.845a16.3,16.3,0,0,1,1.316.977q.629.517,1.22,1.108a16.684,16.684,0,0,1,3.631,5.422,16.516,16.516,0,0,1,.945,3.124,16.806,16.806,0,0,1,.32,3.268c0,.562-.028,1.11-.079,1.645s-.133,1.084-.24,1.62-.239,1.067-.4,1.587-.345,1.044-.549,1.539-.445,1-.7,1.48-.539.953-.844,1.408-.63.893-.977,1.315-.708.821-1.1,1.213l-2.228-3.448A12.727,12.727,0,0,0,235.4,79.38c0-.415-.021-.832-.061-1.249s-.1-.834-.182-1.236-.182-.813-.3-1.206-.26-.785-.42-1.172-.338-.76-.534-1.126a12.4,12.4,0,0,0-.643-1.071c-.233-.348-.483-.685-.747-1.007s-.546-.633-.838-.925h0a12.753,12.753,0,0,0-4.132-2.76,12.5,12.5,0,0,0-2.38-.722,12.712,12.712,0,0,0-2.48-.244H199v35.244L217.842,72.7q5.688,8.814,11.374,17.63h0Z" transform="translate(-195.007 -62.672)" fill="#f8ad1e" fill-rule="evenodd"/></g></g></svg>