<svg xmlns="http://www.w3.org/2000/svg" width="168" height="26.026" viewBox="0 0 168 26.026"><g opacity="0.5"><path d="M26.282,8.48a12.924,12.924,0,0,0-4.738-4.737A12.747,12.747,0,0,0,15.013,2,12.755,12.755,0,0,0,8.48,3.744,12.92,12.92,0,0,0,3.744,8.48,12.752,12.752,0,0,0,2,15.013a12.739,12.739,0,0,0,1.744,6.532,12.914,12.914,0,0,0,4.738,4.737,12.747,12.747,0,0,0,6.531,1.744,12.755,12.755,0,0,0,6.532-1.744,12.924,12.924,0,0,0,4.738-4.737,12.75,12.75,0,0,0,1.742-6.532A12.739,12.739,0,0,0,26.282,8.48ZM15.013,4.16a10.559,10.559,0,0,1,6.923,2.5A12.948,12.948,0,0,1,16.6,10.431a27.766,27.766,0,0,0-4.244-5.908A10.04,10.04,0,0,1,15.013,4.16ZM6.568,8.246A10.562,10.562,0,0,1,10.1,5.357a26.506,26.506,0,0,1,4.346,5.856A28.57,28.57,0,0,1,6.19,12.384q-1.118,0-1.692-.052A11.124,11.124,0,0,1,6.568,8.246ZM4.16,15.013c0-.07,0-.156.013-.26s.013-.19.013-.26c.331.018.834.026,1.511.026a31.629,31.629,0,0,0,9.68-1.431q.365.728.755,1.64a12.929,12.929,0,0,0-5.285,2.785A14.9,14.9,0,0,0,6.893,22.17,10.494,10.494,0,0,1,4.16,15.013ZM15.013,25.866a10.534,10.534,0,0,1-6.638-2.289,14.765,14.765,0,0,1,3.606-4.426,11.1,11.1,0,0,1,4.828-2.629,38.312,38.312,0,0,1,2.03,8.615A10.627,10.627,0,0,1,15.013,25.866Zm9.213-5.153a10.867,10.867,0,0,1-3.357,3.411,37.457,37.457,0,0,0-1.794-7.913q1.819-.129,3.253-.13,1.56,0,3.46.13A10.538,10.538,0,0,1,24.226,20.713Zm-1.614-6.506q-2.264,0-4.19.182-.5-1.275-.885-2.108a12.868,12.868,0,0,0,5.724-4.294,10.447,10.447,0,0,1,2.551,6.3Q24.227,14.206,22.612,14.206Z" transform="translate(-2 -2)"/><path d="M15.031,2a12.981,12.981,0,0,0-4.1,25.3c.649.117.884-.282.884-.626,0-.308-.01-1.126-.014-2.207-3.611.783-4.374-1.741-4.374-1.741a3.429,3.429,0,0,0-1.441-1.9c-1.178-.806.09-.787.09-.787A2.718,2.718,0,0,1,8.06,21.374a2.764,2.764,0,0,0,3.776,1.079,2.782,2.782,0,0,1,.826-1.736c-2.881-.327-5.91-1.441-5.91-6.415A5.029,5.029,0,0,1,8.085,10.82a4.669,4.669,0,0,1,.129-3.435s1.089-.35,3.568,1.329a12.283,12.283,0,0,1,6.5,0c2.48-1.68,3.568-1.329,3.568-1.329a4.647,4.647,0,0,1,.129,3.435A5,5,0,0,1,23.307,14.3c0,4.988-3.032,6.084-5.923,6.4a3.11,3.11,0,0,1,.878,2.4c0,1.736-.016,3.136-.016,3.562,0,.347.232.751.894.623A12.981,12.981,0,0,0,15.031,2Z" transform="translate(47.053 -2)" fill-rule="evenodd"/><g transform="translate(98.211 0)"><path d="M13.392,7.377a6.017,6.017,0,1,0,6.016,6.016,6.015,6.015,0,0,0-6.016-6.016Zm0,9.925A3.908,3.908,0,1,1,17.3,13.394,3.909,3.909,0,0,1,13.392,17.3Z" transform="translate(-1.684 -1.688)"/><circle cx="1.403" cy="1.403" r="1.403" transform="translate(16.56 4.065)"/><path d="M25.815,7.047a5.993,5.993,0,0,0-3.426-3.425,8.6,8.6,0,0,0-2.845-.547C18.291,3.021,17.894,3,14.716,3s-3.585,0-4.828.07a8.529,8.529,0,0,0-2.842.547A5.985,5.985,0,0,0,3.62,7.047a8.569,8.569,0,0,0-.545,2.845C3.019,11.143,3,11.54,3,14.719s0,3.582.073,4.828a8.583,8.583,0,0,0,.545,2.846,6,6,0,0,0,3.428,3.425,8.568,8.568,0,0,0,2.843.586c1.253.055,1.65.072,4.828.072s3.585,0,4.828-.072a8.608,8.608,0,0,0,2.845-.545,6,6,0,0,0,3.426-3.426,8.569,8.569,0,0,0,.545-2.845c.056-1.252.073-1.649.073-4.828s0-3.582-.073-4.828A8.564,8.564,0,0,0,25.815,7.047Zm-1.585,12.4a6.563,6.563,0,0,1-.4,2.2A3.887,3.887,0,0,1,21.6,23.874a6.487,6.487,0,0,1-2.173.4c-1.236.057-1.585.072-4.755.072s-3.5,0-4.756-.072a6.454,6.454,0,0,1-2.172-.4A3.884,3.884,0,0,1,5.5,21.647a6.612,6.612,0,0,1-.4-2.172c-.056-1.236-.069-1.585-.069-4.755s0-3.5.069-4.756a6.555,6.555,0,0,1,.4-2.2A3.886,3.886,0,0,1,7.741,5.541a6.518,6.518,0,0,1,2.172-.4c1.238-.056,1.585-.072,4.756-.072s3.5,0,4.755.072a6.455,6.455,0,0,1,2.173.4,3.893,3.893,0,0,1,2.228,2.228,6.612,6.612,0,0,1,.4,2.172c.056,1.238.07,1.585.07,4.756s0,3.511-.056,4.755H24.23Z" transform="translate(-3.002 -3.005)"/></g><g transform="translate(144.31 0)"><circle cx="2.847" cy="2.847" r="2.847" transform="translate(0)"/><path d="M11.088,8.945v15.8h4.9V16.93c0-2.061.388-4.057,2.944-4.057,2.521,0,2.552,2.357,2.552,4.188v7.683h4.907V16.08c0-4.255-.916-7.525-5.89-7.525a5.157,5.157,0,0,0-4.643,2.551H15.8V8.945Zm-7.993,0H8.007v15.8H3.095Z" transform="translate(-2.705 -1.093)"/></g></g></svg>