<svg xmlns="http://www.w3.org/2000/svg" width="262.403" height="180.001" viewBox="0 0 262.403 180.001"><defs><style>.a{fill:#f8ad1e;opacity:0.3;}</style></defs><path class="a" d="M-6277.116,217.451-6361.477,86.69l-84.369,130.761h-50.623v-180h23.592V215.942l111.4-172.667q33.628,52.105,67.24,104.226l.007-.007,12.768,19.78-.006.008.85,1.325,31.52,48.844Zm-134.066,0,28.22-43.687,13.984,21.684-14.206,22Zm135.06-85.26a74.974,74.974,0,0,0,5.8-7.658,74.789,74.789,0,0,0,6.959-13.012,75.667,75.667,0,0,0,4.274-14.081,75.708,75.708,0,0,0,1.433-14.664q0-3.681-.359-7.386c-.245-2.493-.605-4.934-1.073-7.306q-.724-3.639-1.781-7.128c-.7-2.324-1.536-4.64-2.48-6.931q-1.418-3.4-3.161-6.659a72.94,72.94,0,0,0-3.8-6.332q-1.225-1.83-2.549-3.583h27.815q1.906,3.683,3.506,7.537a97.7,97.7,0,0,1,5.585,18.47,99.412,99.412,0,0,1,1.887,19.318c0,3.324-.163,6.565-.468,9.725-.32,3.207-.788,6.408-1.419,9.574s-1.415,6.306-2.346,9.385q-1.425,4.7-3.247,9.1-1.866,4.5-4.146,8.752a96.845,96.845,0,0,1-4.988,8.325q-2.691,4.028-5.776,7.775-3.026,3.688-6.5,7.168Z" transform="translate(6496.469 -37.45)"/></svg>