<svg xmlns="http://www.w3.org/2000/svg" xmlns:xlink="http://www.w3.org/1999/xlink" width="107.136" height="107.136" viewBox="0 0 107.136 107.136"><defs><style>.a{clip-rule:evenodd;}.b{clip-path:url(#a);}.c{fill:#1b72be;}.c,.d,.e,.f,.g{fill-rule:evenodd;}.d{fill:#0568aa;}.e{fill:#074f7f;}.f{fill:url(#b);}.g{fill:url(#c);}</style><clipPath id="a"><path class="a" d="M830,411.99a3.216,3.216,0,0,0-3.214-3.214H726.076a3.216,3.216,0,0,0-3.214,3.214V512.7a3.216,3.216,0,0,0,3.214,3.214H826.784A3.216,3.216,0,0,0,830,512.7Z" transform="translate(-722.862 -408.776)"/></clipPath><radialGradient id="b" cx="1.358" cy="0.406" r="1.188" gradientUnits="objectBoundingBox"><stop offset="0" stop-color="#6be1fb"/><stop offset="1" stop-color="#38bdfa"/></radialGradient><linearGradient id="c" x1="-0.042" y1="-1.661" x2="-0.041" y2="-1.661" gradientUnits="objectBoundingBox"><stop offset="0" stop-color="#4ac5fa"/><stop offset="1" stop-color="#97e8fc"/></linearGradient></defs><g class="b"><path class="c" d="M830,411.99a3.216,3.216,0,0,0-3.214-3.214H726.076a3.216,3.216,0,0,0-3.214,3.214V512.7a3.216,3.216,0,0,0,3.214,3.214H826.784A3.216,3.216,0,0,0,830,512.7Z" transform="translate(-722.862 -408.776)"/><path class="d" d="M830,411.99a3.216,3.216,0,0,0-3.214-3.214h-60l-43.926,76.081V512.7a3.216,3.216,0,0,0,3.214,3.214H826.784A3.216,3.216,0,0,0,830,512.7Z" transform="translate(-722.862 -408.776)"/><path class="e" d="M772.4,515.911h-7.472l-19.3-38.8,37.609-68.336h6.052l-39.372,68.195L772.4,515.911Zm20.24,0H774l-21.956-38.029h77.958l-.007,7.1Zm-18.52-107.136h-6.257l-45,77.937v10.839Zm10.869,67.705H763.795a6.9,6.9,0,0,1-6.01-10.359l10.61-18.378Zm45.012,0h-43.4L769.2,446.352l21.7-37.577,7.861,0-11.418,38.841,5.3,10.887L830,473.2Z" transform="translate(-722.862 -408.776)"/><path class="f" d="M183.307,1854.2H128.92l-21.152-36.636h75.539Zm-59.208,0H76.171v-26.415l46.6-80.721h18.213l-39.372,68.2Zm11.791-40.814H117.474a5.736,5.736,0,0,1-4.983-8.613l9.212-15.956Zm47.418,0H140.712l-16.6-28.745,21.695-37.577h37.5Z" transform="translate(-76.171 -1747.063)"/><path class="g" d="M156.929,1837.491H101.194L78.9,1798.885H156.89Zm-84.176-40.91,23.62,40.91H44.02l-.175-22.386,51.361-88.96h18.213Zm8.379,3.59,20.8,36.036h53.706l-.036-36.036Zm14.817-72.74-50.815,88.014.163,20.762h48.85l-22.878-39.625,39.924-69.151Zm11.078,67.277H88.275l-.024,0h-.024l-.024,0H88.18l-.024,0-.024,0-.024,0-.024,0-.024,0-.024,0-.024,0-.024,0-.024,0-.024,0-.024,0-.024,0-.024,0-.023,0-.024,0-.023,0-.023,0-.023,0-.023,0-.023,0-.023,0-.023,0-.023,0-.023,0-.023,0-.023,0-.023,0-.023,0-.023,0-.023-.005-.023,0-.023-.005-.023,0-.023-.005-.023-.005-.023-.005-.023,0-.023-.006-.023-.005-.023-.005-.023-.005-.023-.006-.023-.005-.023-.005-.023-.006-.023-.006-.023-.006-.023-.006-.023-.006-.023-.006-.022-.006-.022-.006-.022-.006-.022-.007-.022-.006-.022-.007-.022-.007-.022-.006-.022-.007-.022-.007-.022-.007-.022-.007-.022-.009-.022-.007-.022-.007-.022-.007-.022-.009-.022-.008-.022-.007-.022-.008-.022-.008-.022-.008-.022-.008-.022-.008-.022-.008-.022-.008-.022-.01-.022-.008-.022-.01-.021-.008-.021-.009-.021-.01-.021-.009-.021-.008-.021-.01-.021-.009-.021-.01-.021-.009-.021-.009-.021-.01-.021-.009-.021-.01-.021-.01-.021-.01-.021-.01-.021-.01-.021-.011-.021-.01-.021-.01-.021-.011-.021-.01-.021-.011-.021-.01-.02-.012-.02-.01-.02-.011-.02-.011-.02-.012-.02-.012-.02-.01-.02-.011-.02-.013-.02-.011-.02-.012-.02-.013-.02-.011-.02-.011-.02-.013-.02-.013-.02-.013-.02-.011-.02-.013-.02-.013-.019-.013-.019-.013-.019-.014-.019-.013-.019-.013-.019-.014-.019-.012-.019-.014-.019-.014-.019-.012-.019-.014-.019-.014-.019-.014-.019-.013-.019-.014-.019-.014-.019-.015-.019-.014-.019-.014-.019-.015-.018-.014-.018-.015-.018-.015-.018-.015-.018-.014-.018-.015-.018-.015-.018-.016-.018-.015-.018-.015-.018-.015-.018-.016-.018-.015-.018-.015-.018-.016-.018-.016-.018-.015-.017-.016-.017-.016-.017-.016-.017-.016-.017-.016-.017-.016-.017-.016-.017-.017-.017-.016-.017-.017-.017-.016-.017-.017-.017-.016-.017-.017-.017-.017-.017-.017-.016-.017-.016-.017-.016-.017-.016-.017-.016-.017-.016-.017-.016-.018-.016-.017-.016-.017-.016-.018-.016-.018-.016-.017-.016-.018-.016-.018-.015-.018-.015-.018-.015-.018-.015-.018-.015-.018-.015-.018-.015-.018-.015-.019-.015-.018-.015-.019-.015-.018-.015-.019-.015-.019-.015-.018-.015-.019-.014-.019-.014-.019-.014-.019-.014-.019-.014-.019-.014-.019-.014-.019-.014-.02-.014-.019-.014-.02-.014-.019-.014-.02-.014-.02-.013-.019-.013-.02-.013-.02-.013-.02-.013-.02-.013-.02-.013-.02-.013-.02-.013-.02-.013-.021-.013-.02-.013-.02-.013-.021-.013-.02-.012-.021-.012-.021-.012-.02-.012-.021-.012-.021-.012-.021-.012-.021-.012-.021-.012-.021-.012-.021-.012-.021-.012-.021-.011-.021-.011-.021-.011-.022-.011-.021-.011-.021-.011-.022-.011-.021-.011-.021-.011-.022-.011-.021-.011-.022-.01-.021-.01-.022-.01-.022-.01-.021-.01-.022-.01-.022-.01-.021-.01-.022-.01-.022-.01-.021-.009-.022-.009-.022-.009-.022-.009-.022-.009-.022-.009-.022-.009-.022-.009-.022-.009-.022-.009-.022-.009-.022-.008-.022-.008-.022-.008-.023-.008-.022-.008-.022-.008-.022-.008-.022-.008-.023-.008-.022-.008-.022-.008-.023-.007-.022-.007-.023-.007-.022-.007-.022-.007-.023-.007-.022-.007-.023-.007-.023-.007-.022-.006-.023-.006-.022-.006-.023-.006-.022-.006-.023-.006-.023-.006-.022-.006-.023-.006-.023-.006-.023-.006-.022-.006-.023-.005-.023-.005-.023-.005-.022-.005-.023-.005-.023,0-.023,0-.023,0-.023,0-.023,0-.023,0-.023,0-.023,0-.022,0-.023,0-.023,0-.023,0-.024,0-.022,0-.024,0-.023,0-.023,0-.023,0-.023,0-.023,0-.023,0-.023,0-.023,0-.023,0-.023,0-.024,0-.023,0-.023,0-.023,0-.023,0-.023,0-.024,0-.023,0-.023,0-.023,0-.023,0-.024,0-.023v-.745l0-.023,0-.023,0-.023,0-.023,0-.023,0-.024,0-.023,0-.023,0-.023,0-.023,0-.024,0-.023,0-.023,0-.023,0-.023,0-.023,0-.023,0-.023,0-.024,0-.023,0-.023,0-.023,0-.023,0-.023,0-.023,0-.023,0-.023,0-.023,0-.023,0-.023,0-.023,0-.023,0-.023,0-.022,0-.023,0-.023,0-.023.005-.023L83,1787.7l.005-.023.005-.022.005-.023.006-.023.006-.023.006-.022.006-.023.006-.023.006-.023.006-.022.006-.023.006-.023.006-.022.006-.023.006-.022.007-.023.007-.022.007-.023.007-.022.007-.023.007-.022.007-.023.007-.022.007-.023.008-.022.008-.022.008-.022.008-.023.008-.022.008-.022.008-.022.008-.023.008-.022.008-.022.008-.022.009-.022.009-.022.009-.022.009-.022.009-.022.009-.022.009-.022.009-.022.009-.022.009-.022.009-.022.01-.022.01-.021.01-.022.01-.022.01-.021.01-.022.01-.022.01-.021.01-.022.01-.022.011-.021.011-.021.011-.022.011-.021.011-.022.011-.021.011-.021.011-.021.011-.022.011-.021.011-.021.012-.021.012-.021.012-.021.012-.022.012-.02.012-.021,9.212-15.956,14.185,24.569Zm49.839,0H111.846l-16.6-28.745,22.989-39.818H156.4l.466,68.563Zm-72.122-7.971-.01.018-.009.016-.009.016-.009.017-.009.017-.009.017-.009.016-.009.017-.009.017-.009.016-.009.017-.009.017-.009.017-.008.016-.008.017L84.6,1787l-.008.016-.008.017-.008.017-.008.017-.008.017-.008.017-.008.018-.008.016-.007.017-.008.018-.007.017-.007.017-.007.017-.007.017-.007.018-.007.017-.007.017-.007.017-.007.018-.007.017-.007.017-.007.018-.007.017-.006.018-.006.017-.006.017-.006.018-.006.018-.006.017-.006.017-.006.018-.006.018-.006.017-.006.018-.006.017-.006.018-.006.018-.005.017-.005.018-.005.018-.005.017-.005.018-.005.018,0,.017-.005.019,0,.017,0,.018,0,.018,0,.018,0,.018,0,.017,0,.018,0,.018,0,.018,0,.018,0,.018,0,.018,0,.018,0,.018,0,.018,0,.018,0,.018,0,.018,0,.018,0,.018,0,.018,0,.018,0,.018,0,.018,0,.018,0,.018,0,.018,0,.019,0,.017,0,.019,0,.018,0,.018,0,.018,0,.018,0,.018,0,.018,0,.019,0,.018,0,.018,0,.018,0,.019,0,.018,0,.018,0,.018,0,.019,0,.018,0,.018v.723l0,.018,0,.018,0,.019,0,.018,0,.018,0,.018,0,.018,0,.019,0,.018,0,.018,0,.018,0,.018,0,.018,0,.018,0,.019,0,.018,0,.018,0,.018,0,.018,0,.018,0,.019,0,.018,0,.018,0,.018,0,.018,0,.018,0,.018,0,.018,0,.018,0,.018,0,.018,0,.018,0,.018,0,.018,0,.018,0,.018,0,.018,0,.018,0,.017,0,.019,0,.017,0,.018,0,.018,0,.018,0,.018,0,.018,0,.017,0,.018.005.018.005.018.005.017.005.018.005.018.005.017.006.018.006.018.006.017.006.018.006.018.006.017.006.018.006.017.006.018.006.017.006.018.006.017.006.018.006.017.006.018.007.017.007.017.007.018.007.017.007.017.007.018.007.017.007.017.007.017.007.017.007.018.007.017.007.017.008.017.007.017.008.018.008.017.008.017.008.016.008.017.008.018.008.016.008.017.008.017.008.017.008.017.008.017.008.016.009.017.009.017.009.017.009.017.009.016.009.017.009.017.009.016.009.017.009.016.009.017.01.016.01.017.009.016.009.016.01.016.01.017.01.016.01.016.01.016.01.016.01.016.01.016.01.016.01.015.01.016.01.016.01.015.011.016.01.016.01.015.011.016.011.015.011.015.011.016.011.015.011.015.011.015.011.015.011.015.011.016.011.014.011.015.011.015.012.015.011.014.011.015.012.015.012.015.011.014.011.014.012.015.012.014.012.015.012.014.012.014.012.014.012.013.012.015.012.013.012.014.012.014.012.014.012.014.012.014.012.012.013.014.013.014.012.013.012.013.013.013.013.014.013.013.013.012.013.013.013.013.013.013.013.012.013.014.013.011.013.013.013.013.013.013.013.011.013.012.014.013.014.013.013.012.013.012.014.012.014.011.013.013.013.011.014.012.014.011.014.011.014.011.014.011.014.012.014.011.014.01.014.011.014.012.014.01.015.011.015.011.014.011.014.01.015.011.014.01.014.01.015.011.015.01.015.01.015.01.014.009.015.01.015.01.015.01.015.01.015.01.014.009.015.009.016.01.015.009.015.01.016.009.015.01.015.009.016.01.015.01.015.009.015.008.016.009.016.009.016.01.016.009.016.009.015.008.015.008.016.009.016.01.015.008.016.009.015.008.016.008.016.009.016.008.016.009.016.007.016.008.016.008.016.009.016.007.016.008.016.008.016.007.017.009.017.007.016.007.016.007.017.008.017.007.016.007.017.007.016.007.016.006.017.007.017.007.016.007.016.006.017.007.017.007.017.006.017.006.017.006.017.007.017.006.017.006.017.006.017.006.017.006.017.006.017.005.018.006.017.006.017.005.018.006.017.005.017.006.017.005.017.005.017.005.018.006.017.005.017.005.018.005.017,0,.017.005.018.005.017.005.017,0,.018.005.018,0,.017.005.018,0,.018,0,.018.005.017,0,.018,0,.019,0,.018,0,.018,0,.018,0,.017,0,.019,0,.018,0,.017,0,.019,0,.018,0,.017,0,.018,0,.018,0,.018,0,.019,0,.018,0,.018,0,.019,0,.018,0,.018,0,.018,0,.018,0,.018,0,.018,0,.018,0,.018,0,.019,0,.019,0,.019,0,.018,0h.018l.019,0,.019,0,.018,0H88.2l.019,0h.018l.018,0h.038l.018,0H104.8L92.84,1772.708l-8.1,14.027Zm34.24-59.305-22.246,38.532,15.853,27.459H155.57l-.448-65.991Z" transform="translate(-47.308 -1728.386)"/></g></svg>